<?xml version="1.0" ?><svg enable-background="new 0 0 64 64" height="64px" id="Layer_1" version="1.1" viewBox="0 0 64 64" width="64px" xml:space="preserve" xmlns="http://www.w3.org/2000/svg" xmlns:xlink="http://www.w3.org/1999/xlink"><circle cx="32" cy="32" fill="#E0E0D1" r="32"/><path d="M47,36c0,1.105-0.895,2-2,2H19c-1.105,0-2-0.895-2-2V14c0-1.105,0.895-2,2-2h26c1.105,0,2,0.895,2,2V36z" fill="#4F5D73"/><path d="M17,36c0,0,0,0.895,0,2v2c0,1.105,0.895,2,2,2h7c0,0,3,0,3,3c0,4.18-0.75,6.257-0.997,6.828  c-0.02,0.044-0.041,0.087-0.06,0.132c-0.012,0.024-0.02,0.04-0.02,0.04h0.007c-0.199,0.501-0.316,1.043-0.316,1.615  C27.615,56.037,29.578,58,32,58c2.422,0,4.385-1.963,4.385-4.385c0-0.572-0.117-1.114-0.316-1.615h0.007c0,0-0.008-0.016-0.02-0.041  c-0.018-0.044-0.039-0.086-0.059-0.13C35.751,51.26,35,49.182,35,45c0,0,0.01-3,3-3h7c1.105,0,2-0.895,2-2v-2c0-1.105,0-2,0-2H17z" fill="#231F20" opacity="0.2"/><path d="M17,34c0,0,0,0.895,0,2v2c0,1.105,0.895,2,2,2h7c0,0,3,0,3,3c0,4.18-0.75,6.257-0.997,6.828  c-0.02,0.044-0.041,0.087-0.06,0.132c-0.012,0.024-0.02,0.04-0.02,0.04h0.007c-0.199,0.501-0.316,1.043-0.316,1.615  C27.615,54.037,29.578,56,32,56c2.422,0,4.385-1.963,4.385-4.385c0-0.572-0.117-1.114-0.316-1.615h0.007c0,0-0.008-0.016-0.02-0.041  c-0.018-0.044-0.039-0.086-0.059-0.13C35.751,49.26,35,47.182,35,43c0,0,0.01-3,3-3h7c1.105,0,2-0.895,2-2v-2c0-1.105,0-2,0-2H17z" fill="#E0995E"/><rect fill="#231F20" height="6" opacity="0.2" width="30" x="17" y="31"/><rect fill="#FFFFFF" height="6" width="30" x="17" y="29"/><path d="M45,14H19c-1.105,0-2,0.895-2,2v4v4c0,1.105,0,2,0,2h13.5c0.828,0,1.5,0.672,1.5,1.5  s0.672,1.5,1.5,1.5c0.828,0,1.5-0.672,1.5-1.5s0.672-1.5,1.5-1.5c0.828,0,1.5,0.672,1.5,1.5v3c0,0.828,0.672,1.5,1.5,1.5  c0.828,0,1.5-0.672,1.5-1.5v-3c0-0.828,0.672-1.5,1.5-1.5c0.828,0,1.5,0.672,1.5,1.5v1c0,0.828,0.672,1.5,1.5,1.5  c0.828,0,1.5-0.672,1.5-1.5V24v-1.5V20v-4C47,14.895,46.105,14,45,14z" fill="#231F20" opacity="0.2"/><path d="M47,26.5c0,0.828-0.672,1.5-1.5,1.5l0,0c-0.828,0-1.5-0.672-1.5-1.5v-6c0-0.828,0.672-1.5,1.5-1.5l0,0  c0.828,0,1.5,0.672,1.5,1.5V26.5z" fill="#C75C5C"/><path d="M41,28.5c0,0.828-0.672,1.5-1.5,1.5l0,0c-0.828,0-1.5-0.672-1.5-1.5v-6c0-0.828,0.672-1.5,1.5-1.5l0,0  c0.828,0,1.5,0.672,1.5,1.5V28.5z" fill="#C75C5C"/><path d="M44,21c0,0.828-0.672,1.5-1.5,1.5V23c-0.828,0-1.5-1.172-1.5-2v4.5c0-0.828,0.672-1.5,1.5-1.5l0,0  c0.828,0,1.5,0.672,1.5,1.5V21z" fill="#C75C5C"/><path d="M35,25.5c0,0.828-0.672,1.5-1.5,1.5l0,0c-0.828,0-1.5-0.672-1.5-1.5v-6c0-0.828,0.672-1.5,1.5-1.5l0,0  c0.828,0,1.5,0.672,1.5,1.5V25.5z" fill="#C75C5C"/><path d="M38,21c0,0.828-0.672,1.5-1.5,1.5V23c-0.828,0-1.5-1.172-1.5-2v4.5c0-0.828,0.672-1.5,1.5-1.5l0,0  c0.828,0,1.5,0.672,1.5,1.5V21z" fill="#C75C5C"/><path d="M32,21c0,0.828-0.672,1.5-1.5,1.5V23c-0.828,0,0-1.172,0-2v2c0-0.828-0.828,1,0,1l0,0  c0.828,0,1.5,0.672,1.5,1.5V21z" fill="#C75C5C"/><g><path d="M47,14c0-1.105-0.895-2-2-2H19c-1.105,0-2,0.895-2,2v4h30V14z" fill="#C75C5C"/><path d="M17,14v8c0,1.105,0,2,0,2h28c1.105,0,2-0.895,2-2v-4L17,14z" fill="#C75C5C"/></g></svg>
